<svg width="32" height="32" viewBox="0 0 32 32" fill="none" xmlns="http://www.w3.org/2000/svg">
  <!-- Fish shape -->
  <path d="M4 16C4 16 8 12 16 12C24 12 28 16 28 16C28 16 24 20 16 20C8 20 4 16 4 16Z" fill="#2563eb"/>
  
  <!-- Fish tail -->
  <path d="M2 16L6 14V18L2 16Z" fill="#1d4ed8"/>
  
  <!-- Fish eye -->
  <circle cx="20" cy="16" r="2" fill="white"/>
  <circle cx="20" cy="16" r="1" fill="#1d4ed8"/>
  
  <!-- Fishing hook -->
  <path d="M26 8C26 8 28 6 30 8C30 10 28 12 26 12C26 10 26 8 26 8Z" stroke="#f59e0b" stroke-width="2" fill="none"/>
  <line x1="26" y1="8" x2="26" y2="4" stroke="#f59e0b" stroke-width="2"/>
  
  <!-- Water waves -->
  <path d="M2 24C4 22 6 26 8 24C10 22 12 26 14 24C16 22 18 26 20 24C22 22 24 26 26 24C28 22 30 26 30 24" stroke="#06b6d4" stroke-width="1.5" fill="none"/>
</svg>


